<svg xmlns="http://www.w3.org/2000/svg" viewBox="0 0 150 150">
<!-- SVG created with Arrow, by QuiverAI (https://quiver.ai) -->
  <style type="text/css">.cls-0 {fill:none;stroke:#0c6e4f;stroke-width:4.5;stroke-linecap:round;stroke-linejoin:round;stroke-miterlimit:9.9988;}
.cls-1 {fill:none;stroke:#0c6e4f;stroke-width:4.5;stroke-linecap:round;stroke-linejoin:round;stroke-miterlimit:10;}</style>
  <path class="cls-0" d="m121.4 4.3h-92.7c-11.9 0-22.6 9.8-22.6 22.3v96.4c0 11.9 9.8 22.7 22.6 22.7h92.7c12.2 0 22.6-9.6 22.6-22.2v-97c0-12.1-10.1-22.2-22.6-22.2z"/>
  <path class="cls-1" d="m72.1 81-14.6-10.9c-12.1 0.5-35.2 6.9-48.4 29.9l-3 5.8m0.6 12.1c7.1-15.1 21.6-30.9 36.9-23.6 4.5 1.9 8.5 5.4 13 10m16.2 12.5-3.2 3.3c-1.4 1.4-4.3 1.4-5.3-1-0.5-1.1-0.1-2.3 0.8-3.2l2.6-2.5c2.6-2.5 5.9 0.3 5.6 2.7l3.8 3.2c1.7 1.2 4.1 1.1 5.3-0.8 0.8-1.1 0.9-3.1-0.3-4m-0.2-10.6 6.4 6.2c0.9 1.2 0.9 3-0.3 4.4-1.1 1.4-4 1.8-5.4 0.2l-5.4-5.5m12 1.1c2.9 1.8 6.7-0.8 5.5-4.6m-0.3-1.2c4.5-4 9.6-10.2 18.1-11.2 11.3-1.3 20.8 5.7 28.5 18.8l2.5 4.9m-50.2-47c9.2 0.5 30.6 3.9 45.6 27l4.6 8m-70.5-24.1c3.7-2.4 6.2-1.7 8.2-1.9 1.4 0 3.2-0.3 4.6-1.6l7.3-7.4m-14.3 19.3 14.7 14.7c2.4 2.2 0.1 8-4.1 5.9m-16.6-28.5-8.3 7.6c-3 3.4 1 8.1 4.8 6l7.4-5.5c0.7-0.6 1.6-0.5 2.1-0.2m-16.1 14.2c0.9 0.7 1.8 2.5 0.7 4.1l-3.5 3.5c-1.8 2.2-6.2 0.8-5.2-3.2l0.7-1.2 2.5-2.5c1.3-1.7 3.6-1.8 4.8-0.7zm-1.4 13.2c-1.4-0.8-2.5-3-0.9-4.6l2.7-2.9c2.7-3.2 6.7 0 5.1 3.2l-3.2 3.3c-0.7 1.4-2.8 1.7-3.7 1z"/>
  <path class="cls-1" d="m30 58h23.3c0.6 0 1.3-0.2 1.7-0.8l3.2-6.3c0.4-0.5 0.8-0.5 1.1-0.3l6 11.9c0.4 0.4 1.4 0.4 1.4-0.3l7.2-28.3c0.1-0.3 0.7-0.3 0.7 0l7.3 36.2c0.2 0.5 0.9 0.4 0.9 0l8-19.8c0.4-0.6 1.1-0.7 1.3-0.3l3.5 6.1c0.3 1.9 1.5 1.9 1.8 1.9h22.2"/>
</svg>